P2
9 9
# Sudoku Board
9
3 8    5 6 1 2 7 4   9   
6 1 4 9 7 5 8 3   2    
2 9 7   4 3 8 1 5   6   
4 6 3 8 5 1  9 2   7  
5 7 8 2 4 9 6 1   3
9 2    1 7 6 3 5 8   4  
7 4 2 5 8 6   3 9   1   
8  3 6 1 9 4 2 7   5   
1 5 9  3 2 7 4 6   8   